<?plantuml 1.2026.1beta2?><svg xmlns="http://www.w3.org/2000/svg" xmlns:xlink="http://www.w3.org/1999/xlink" contentStyleType="text/css" data-diagram-type="CLASS" height="1989px" preserveAspectRatio="none" style="width:447px;height:1989px;background:#FFFFFF;" version="1.1" viewBox="0 0 447 1989" width="447px" zoomAndPan="magnify"><defs/><g><!--class A--><g class="entity" data-qualified-name="A" data-source-line="1" id="ent0002"><rect fill="#F1F1F1" height="64.2969" rx="2.5" ry="2.5" style="stroke:#181818;stroke-width:0.5;" width="210.0781" x="118.62" y="7"/><ellipse cx="214.6205" cy="23" fill="#ADD1B2" rx="11" ry="11" style="stroke:#181818;stroke-width:1;"/><path d="M217.5892,28.6406 Q217.0111,28.9375 216.3705,29.0781 Q215.7299,29.2344 215.0267,29.2344 Q212.5267,29.2344 211.1986,27.5938 Q209.8861,25.9375 209.8861,22.8125 Q209.8861,19.6875 211.1986,18.0313 Q212.5267,16.375 215.0267,16.375 Q215.7299,16.375 216.3705,16.5313 Q217.0267,16.6875 217.5892,16.9844 L217.5892,19.7031 Q216.9642,19.125 216.3705,18.8594 Q215.7767,18.5781 215.1517,18.5781 Q213.808,18.5781 213.1205,19.6563 Q212.433,20.7188 212.433,22.8125 Q212.433,24.9063 213.1205,25.9844 Q213.808,27.0469 215.1517,27.0469 Q215.7767,27.0469 216.3705,26.7813 Q216.9642,26.5 217.5892,25.9219 L217.5892,28.6406 Z " fill="#000000"/><text fill="#000000" font-family="sans-serif" font-size="14" lengthAdjust="spacing" textLength="9.5771" x="235.1205" y="27.8467">A</text><line style="stroke:#181818;stroke-width:0.5;" x1="119.62" x2="327.6981" y1="39" y2="39"/><text fill="#000000" font-family="sans-serif" font-size="14" lengthAdjust="spacing" textLength="198.0781" x="124.62" y="55.9951">Imagen Original de Entrada;</text><line style="stroke:#181818;stroke-width:0.5;" x1="119.62" x2="327.6981" y1="63.2969" y2="63.2969"/></g><!--class B--><g class="entity" data-qualified-name="B" data-source-line="2" id="ent0003"><rect fill="#F1F1F1" height="64.2969" rx="2.5" ry="2.5" style="stroke:#181818;stroke-width:0.5;" width="251.0664" x="98.13" y="132.3"/><ellipse cx="214.611" cy="148.3" fill="#ADD1B2" rx="11" ry="11" style="stroke:#181818;stroke-width:1;"/><path d="M217.5797,153.9406 Q217.0016,154.2375 216.361,154.3781 Q215.7203,154.5344 215.0172,154.5344 Q212.5172,154.5344 211.1891,152.8937 Q209.8766,151.2375 209.8766,148.1125 Q209.8766,144.9875 211.1891,143.3312 Q212.5172,141.675 215.0172,141.675 Q215.7203,141.675 216.361,141.8312 Q217.0172,141.9875 217.5797,142.2844 L217.5797,145.0031 Q216.9547,144.425 216.361,144.1594 Q215.7672,143.8781 215.1422,143.8781 Q213.7985,143.8781 213.111,144.9562 Q212.4235,146.0187 212.4235,148.1125 Q212.4235,150.2062 213.111,151.2844 Q213.7985,152.3469 215.1422,152.3469 Q215.7672,152.3469 216.361,152.0812 Q216.9547,151.8 217.5797,151.2219 L217.5797,153.9406 Z " fill="#000000"/><text fill="#000000" font-family="sans-serif" font-size="14" lengthAdjust="spacing" textLength="9.6045" x="235.111" y="153.1467">B</text><line style="stroke:#181818;stroke-width:0.5;" x1="99.13" x2="348.1964" y1="164.3" y2="164.3"/><text fill="#000000" font-family="sans-serif" font-size="14" lengthAdjust="spacing" textLength="239.0664" x="104.13" y="181.2951">Cargar Imagen y Convertir a RGB;</text><line style="stroke:#181818;stroke-width:0.5;" x1="99.13" x2="348.1964" y1="188.5969" y2="188.5969"/></g><!--class C--><g class="entity" data-qualified-name="C" data-source-line="3" id="ent0004"><rect fill="#F1F1F1" height="64.2969" rx="2.5" ry="2.5" style="stroke:#181818;stroke-width:0.5;" width="214.1797" x="116.57" y="257.59"/><ellipse cx="214.5221" cy="273.59" fill="#ADD1B2" rx="11" ry="11" style="stroke:#181818;stroke-width:1;"/><path d="M217.4909,279.2306 Q216.9128,279.5275 216.2721,279.6681 Q215.6315,279.8244 214.9284,279.8244 Q212.4284,279.8244 211.1003,278.1837 Q209.7878,276.5275 209.7878,273.4025 Q209.7878,270.2775 211.1003,268.6212 Q212.4284,266.965 214.9284,266.965 Q215.6315,266.965 216.2721,267.1212 Q216.9284,267.2775 217.4909,267.5744 L217.4909,270.2931 Q216.8659,269.715 216.2721,269.4494 Q215.6784,269.1681 215.0534,269.1681 Q213.7096,269.1681 213.0221,270.2462 Q212.3346,271.3087 212.3346,273.4025 Q212.3346,275.4962 213.0221,276.5744 Q213.7096,277.6369 215.0534,277.6369 Q215.6784,277.6369 216.2721,277.3712 Q216.8659,277.09 217.4909,276.5119 L217.4909,279.2306 Z " fill="#000000"/><text fill="#000000" font-family="sans-serif" font-size="14" lengthAdjust="spacing" textLength="9.7754" x="235.0221" y="278.4367">C</text><line style="stroke:#181818;stroke-width:0.5;" x1="117.57" x2="329.7497" y1="289.59" y2="289.59"/><text fill="#000000" font-family="sans-serif" font-size="14" lengthAdjust="spacing" textLength="202.1797" x="122.57" y="306.5851">Convertir a Escala de Grises;</text><line style="stroke:#181818;stroke-width:0.5;" x1="117.57" x2="329.7497" y1="313.8869" y2="313.8869"/></g><!--class D--><g class="entity" data-qualified-name="D" data-source-line="4" id="ent0005"><rect fill="#F1F1F1" height="64.2969" rx="2.5" ry="2.5" style="stroke:#181818;stroke-width:0.5;" width="182.9531" x="132.18" y="382.89"/><ellipse cx="214.0164" cy="398.89" fill="#ADD1B2" rx="11" ry="11" style="stroke:#181818;stroke-width:1;"/><path d="M216.9852,404.5306 Q216.4071,404.8275 215.7664,404.9681 Q215.1258,405.1244 214.4227,405.1244 Q211.9227,405.1244 210.5946,403.4838 Q209.2821,401.8275 209.2821,398.7025 Q209.2821,395.5775 210.5946,393.9213 Q211.9227,392.265 214.4227,392.265 Q215.1258,392.265 215.7664,392.4213 Q216.4227,392.5775 216.9852,392.8744 L216.9852,395.5931 Q216.3602,395.015 215.7664,394.7494 Q215.1727,394.4681 214.5477,394.4681 Q213.2039,394.4681 212.5164,395.5463 Q211.8289,396.6088 211.8289,398.7025 Q211.8289,400.7963 212.5164,401.8744 Q213.2039,402.9369 214.5477,402.9369 Q215.1727,402.9369 215.7664,402.6713 Q216.3602,402.39 216.9852,401.8119 L216.9852,404.5306 Z " fill="#000000"/><text fill="#000000" font-family="sans-serif" font-size="14" lengthAdjust="spacing" textLength="10.7803" x="234.5164" y="403.7367">D</text><line style="stroke:#181818;stroke-width:0.5;" x1="133.18" x2="314.1331" y1="414.89" y2="414.89"/><text fill="#000000" font-family="sans-serif" font-size="14" lengthAdjust="spacing" textLength="170.9531" x="138.18" y="431.8851">Binarizaci&#243;n Adaptativa;</text><line style="stroke:#181818;stroke-width:0.5;" x1="133.18" x2="314.1331" y1="439.1869" y2="439.1869"/></g><!--class E--><g class="entity" data-qualified-name="E" data-source-line="5" id="ent0006"><rect fill="#F1F1F1" height="64.2969" rx="2.5" ry="2.5" style="stroke:#181818;stroke-width:0.5;" width="267.3086" x="90.01" y="508.19"/><ellipse cx="214.9914" cy="524.19" fill="#ADD1B2" rx="11" ry="11" style="stroke:#181818;stroke-width:1;"/><path d="M217.9602,529.8306 Q217.3821,530.1275 216.7414,530.2681 Q216.1008,530.4244 215.3977,530.4244 Q212.8977,530.4244 211.5696,528.7838 Q210.2571,527.1275 210.2571,524.0025 Q210.2571,520.8775 211.5696,519.2213 Q212.8977,517.565 215.3977,517.565 Q216.1008,517.565 216.7414,517.7213 Q217.3977,517.8775 217.9602,518.1744 L217.9602,520.8931 Q217.3352,520.315 216.7414,520.0494 Q216.1477,519.7681 215.5227,519.7681 Q214.1789,519.7681 213.4914,520.8463 Q212.8039,521.9088 212.8039,524.0025 Q212.8039,526.0963 213.4914,527.1744 Q214.1789,528.2369 215.5227,528.2369 Q216.1477,528.2369 216.7414,527.9713 Q217.3352,527.69 217.9602,527.1119 L217.9602,529.8306 Z " fill="#000000"/><text fill="#000000" font-family="sans-serif" font-size="14" lengthAdjust="spacing" textLength="8.8457" x="235.4914" y="529.0367">E</text><line style="stroke:#181818;stroke-width:0.5;" x1="91.01" x2="356.3186" y1="540.19" y2="540.19"/><line style="stroke:#181818;stroke-width:0.5;" x1="91.01" x2="356.3186" y1="548.19" y2="548.19"/><text fill="#000000" font-family="sans-serif" font-size="14" lengthAdjust="spacing" textLength="255.3086" x="96.01" y="565.1851">Dilataci&#243;n (Conectar Componentes);</text></g><!--class F--><g class="entity" data-qualified-name="F" data-source-line="6" id="ent0007"><rect fill="#F1F1F1" height="64.2969" rx="2.5" ry="2.5" style="stroke:#181818;stroke-width:0.5;" width="356.4629" x="45.43" y="633.48"/><ellipse cx="215.3851" cy="649.48" fill="#ADD1B2" rx="11" ry="11" style="stroke:#181818;stroke-width:1;"/><path d="M218.3538,655.1206 Q217.7757,655.4175 217.1351,655.5581 Q216.4945,655.7144 215.7913,655.7144 Q213.2913,655.7144 211.9632,654.0738 Q210.6507,652.4175 210.6507,649.2925 Q210.6507,646.1675 211.9632,644.5113 Q213.2913,642.855 215.7913,642.855 Q216.4945,642.855 217.1351,643.0113 Q217.7913,643.1675 218.3538,643.4644 L218.3538,646.1831 Q217.7288,645.605 217.1351,645.3394 Q216.5413,645.0581 215.9163,645.0581 Q214.5726,645.0581 213.8851,646.1363 Q213.1976,647.1988 213.1976,649.2925 Q213.1976,651.3863 213.8851,652.4644 Q214.5726,653.5269 215.9163,653.5269 Q216.5413,653.5269 217.1351,653.2613 Q217.7288,652.98 218.3538,652.4019 L218.3538,655.1206 Z " fill="#000000"/><text fill="#000000" font-family="sans-serif" font-size="14" lengthAdjust="spacing" textLength="8.0527" x="235.8851" y="654.3267">F</text><line style="stroke:#181818;stroke-width:0.5;" x1="46.43" x2="400.8929" y1="665.48" y2="665.48"/><line style="stroke:#181818;stroke-width:0.5;" x1="46.43" x2="400.8929" y1="673.48" y2="673.48"/><text fill="#000000" font-family="sans-serif" font-size="14" lengthAdjust="spacing" textLength="344.4629" x="51.43" y="690.4751">Proyecci&#243;n Horizontal (Segmentaci&#243;n de L&#237;neas);</text></g><!--class G--><g class="entity" data-qualified-name="G" data-source-line="7" id="ent0008"><rect fill="#F1F1F1" height="64.2969" rx="2.5" ry="2.5" style="stroke:#181818;stroke-width:0.5;" width="240.9834" x="103.17" y="774.78"/><ellipse cx="213.9874" cy="790.78" fill="#ADD1B2" rx="11" ry="11" style="stroke:#181818;stroke-width:1;"/><path d="M216.9561,796.4206 Q216.378,796.7175 215.7374,796.8581 Q215.0968,797.0144 214.3936,797.0144 Q211.8936,797.0144 210.5655,795.3738 Q209.253,793.7175 209.253,790.5925 Q209.253,787.4675 210.5655,785.8113 Q211.8936,784.155 214.3936,784.155 Q215.0968,784.155 215.7374,784.3113 Q216.3936,784.4675 216.9561,784.7644 L216.9561,787.4831 Q216.3311,786.905 215.7374,786.6394 Q215.1436,786.3581 214.5186,786.3581 Q213.1749,786.3581 212.4874,787.4363 Q211.7999,788.4988 211.7999,790.5925 Q211.7999,792.6863 212.4874,793.7644 Q213.1749,794.8269 214.5186,794.8269 Q215.1436,794.8269 215.7374,794.5613 Q216.3311,794.28 216.9561,793.7019 L216.9561,796.4206 Z " fill="#000000"/><text fill="#000000" font-family="sans-serif" font-size="14" lengthAdjust="spacing" textLength="10.8486" x="234.4874" y="795.6267">G</text><line style="stroke:#181818;stroke-width:0.5;" x1="104.17" x2="343.1534" y1="806.78" y2="806.78"/><text fill="#000000" font-family="sans-serif" font-size="14" lengthAdjust="spacing" textLength="228.9834" x="109.17" y="823.7751">Extraer ROI de L&#237;nea y Binarizar;</text><line style="stroke:#181818;stroke-width:0.5;" x1="104.17" x2="343.1534" y1="831.0769" y2="831.0769"/></g><!--class H--><g class="entity" data-qualified-name="H" data-source-line="8" id="ent0009"><rect fill="#F1F1F1" height="64.2969" rx="2.5" ry="2.5" style="stroke:#181818;stroke-width:0.5;" width="369.5742" x="38.87" y="900.08"/><ellipse cx="214.1434" cy="916.08" fill="#ADD1B2" rx="11" ry="11" style="stroke:#181818;stroke-width:1;"/><path d="M217.1122,921.7206 Q216.5341,922.0175 215.8934,922.1581 Q215.2528,922.3144 214.5497,922.3144 Q212.0497,922.3144 210.7216,920.6737 Q209.4091,919.0175 209.4091,915.8925 Q209.4091,912.7675 210.7216,911.1112 Q212.0497,909.455 214.5497,909.455 Q215.2528,909.455 215.8934,909.6112 Q216.5497,909.7675 217.1122,910.0644 L217.1122,912.7831 Q216.4872,912.205 215.8934,911.9394 Q215.2997,911.6581 214.6747,911.6581 Q213.3309,911.6581 212.6434,912.7362 Q211.9559,913.7987 211.9559,915.8925 Q211.9559,917.9862 212.6434,919.0644 Q213.3309,920.1269 214.6747,920.1269 Q215.2997,920.1269 215.8934,919.8612 Q216.4872,919.58 217.1122,919.0019 L217.1122,921.7206 Z " fill="#000000"/><text fill="#000000" font-family="sans-serif" font-size="14" lengthAdjust="spacing" textLength="10.5273" x="234.6434" y="920.9267">H</text><line style="stroke:#181818;stroke-width:0.5;" x1="39.87" x2="407.4442" y1="932.08" y2="932.08"/><line style="stroke:#181818;stroke-width:0.5;" x1="39.87" x2="407.4442" y1="940.08" y2="940.08"/><text fill="#000000" font-family="sans-serif" font-size="14" lengthAdjust="spacing" textLength="357.5742" x="44.87" y="957.0751">Proyecci&#243;n Vertical (Segmentaci&#243;n de Caracteres);</text></g><!--class I--><g class="entity" data-qualified-name="I" data-source-line="9" id="ent0010"><rect fill="#F1F1F1" height="64.2969" rx="2.5" ry="2.5" style="stroke:#181818;stroke-width:0.5;" width="184.0127" x="131.65" y="1041.38"/><ellipse cx="217.3419" cy="1057.38" fill="#ADD1B2" rx="11" ry="11" style="stroke:#181818;stroke-width:1;"/><path d="M220.3106,1063.0206 Q219.7325,1063.3175 219.0919,1063.4581 Q218.4513,1063.6144 217.7481,1063.6144 Q215.2481,1063.6144 213.92,1061.9738 Q212.6075,1060.3175 212.6075,1057.1925 Q212.6075,1054.0675 213.92,1052.4113 Q215.2481,1050.755 217.7481,1050.755 Q218.4513,1050.755 219.0919,1050.9113 Q219.7481,1051.0675 220.3106,1051.3644 L220.3106,1054.0831 Q219.6856,1053.505 219.0919,1053.2394 Q218.4981,1052.9581 217.8731,1052.9581 Q216.5294,1052.9581 215.8419,1054.0363 Q215.1544,1055.0988 215.1544,1057.1925 Q215.1544,1059.2863 215.8419,1060.3644 Q216.5294,1061.4269 217.8731,1061.4269 Q218.4981,1061.4269 219.0919,1061.1613 Q219.6856,1060.88 220.3106,1060.3019 L220.3106,1063.0206 Z " fill="#000000"/><text fill="#000000" font-family="sans-serif" font-size="14" lengthAdjust="spacing" textLength="4.1289" x="237.8419" y="1062.2267">I</text><line style="stroke:#181818;stroke-width:0.5;" x1="132.65" x2="314.6627" y1="1073.38" y2="1073.38"/><text fill="#000000" font-family="sans-serif" font-size="14" lengthAdjust="spacing" textLength="172.0127" x="137.65" y="1090.3751">Extraer ROI de Car&#225;cter;</text><line style="stroke:#181818;stroke-width:0.5;" x1="132.65" x2="314.6627" y1="1097.6769" y2="1097.6769"/></g><!--class J--><g class="entity" data-qualified-name="J" data-source-line="10" id="ent0011"><rect fill="#F1F1F1" height="64.2969" rx="2.5" ry="2.5" style="stroke:#181818;stroke-width:0.5;" width="433.3193" x="7" y="1166.67"/><ellipse cx="217.3452" cy="1182.67" fill="#ADD1B2" rx="11" ry="11" style="stroke:#181818;stroke-width:1;"/><path d="M220.314,1188.3106 Q219.7358,1188.6075 219.0952,1188.7481 Q218.4546,1188.9044 217.7515,1188.9044 Q215.2515,1188.9044 213.9233,1187.2638 Q212.6108,1185.6075 212.6108,1182.4825 Q212.6108,1179.3575 213.9233,1177.7013 Q215.2515,1176.045 217.7515,1176.045 Q218.4546,1176.045 219.0952,1176.2013 Q219.7515,1176.3575 220.314,1176.6544 L220.314,1179.3731 Q219.689,1178.795 219.0952,1178.5294 Q218.5015,1178.2481 217.8765,1178.2481 Q216.5327,1178.2481 215.8452,1179.3263 Q215.1577,1180.3888 215.1577,1182.4825 Q215.1577,1184.5763 215.8452,1185.6544 Q216.5327,1186.7169 217.8765,1186.7169 Q218.5015,1186.7169 219.0952,1186.4513 Q219.689,1186.17 220.314,1185.5919 L220.314,1188.3106 Z " fill="#000000"/><text fill="#000000" font-family="sans-serif" font-size="14" lengthAdjust="spacing" textLength="4.1289" x="237.8452" y="1187.5167">J</text><line style="stroke:#181818;stroke-width:0.5;" x1="8" x2="439.3193" y1="1198.67" y2="1198.67"/><line style="stroke:#181818;stroke-width:0.5;" x1="8" x2="439.3193" y1="1206.67" y2="1206.67"/><text fill="#000000" font-family="sans-serif" font-size="14" lengthAdjust="spacing" textLength="421.3193" x="13" y="1223.6651">Preprocesar ROI de Car&#225;cter (process_char_for_model_cnn);</text></g><!--class K--><g class="entity" data-qualified-name="K" data-source-line="11" id="ent0012"><rect fill="#F1F1F1" height="64.2969" rx="2.5" ry="2.5" style="stroke:#181818;stroke-width:0.5;" width="284.1455" x="81.59" y="1291.97"/><ellipse cx="214.8224" cy="1307.97" fill="#ADD1B2" rx="11" ry="11" style="stroke:#181818;stroke-width:1;"/><path d="M217.7912,1313.6106 Q217.213,1313.9075 216.5724,1314.0481 Q215.9318,1314.2044 215.2287,1314.2044 Q212.7287,1314.2044 211.4005,1312.5638 Q210.088,1310.9075 210.088,1307.7825 Q210.088,1304.6575 211.4005,1303.0013 Q212.7287,1301.345 215.2287,1301.345 Q215.9318,1301.345 216.5724,1301.5013 Q217.2287,1301.6575 217.7912,1301.9544 L217.7912,1304.6731 Q217.1662,1304.095 216.5724,1303.8294 Q215.9787,1303.5481 215.3537,1303.5481 Q214.0099,1303.5481 213.3224,1304.6263 Q212.6349,1305.6888 212.6349,1307.7825 Q212.6349,1309.8763 213.3224,1310.9544 Q214.0099,1312.0169 215.3537,1312.0169 Q215.9787,1312.0169 216.5724,1311.7513 Q217.1662,1311.47 217.7912,1310.8919 L217.7912,1313.6106 Z " fill="#000000"/><text fill="#000000" font-family="sans-serif" font-size="14" lengthAdjust="spacing" textLength="9.1807" x="235.3224" y="1312.8167">K</text><line style="stroke:#181818;stroke-width:0.5;" x1="82.59" x2="364.7355" y1="1323.97" y2="1323.97"/><line style="stroke:#181818;stroke-width:0.5;" x1="82.59" x2="364.7355" y1="1331.97" y2="1331.97"/><text fill="#000000" font-family="sans-serif" font-size="14" lengthAdjust="spacing" textLength="272.1455" x="87.59" y="1348.9651">Predecir Car&#225;cter (model_cnn.predict);</text></g><!--class L--><g class="entity" data-qualified-name="L" data-source-line="12" id="ent0013"><rect fill="#F1F1F1" height="64.2969" rx="2.5" ry="2.5" style="stroke:#181818;stroke-width:0.5;" width="405.5859" x="20.87" y="1417.27"/><ellipse cx="215.5131" cy="1433.27" fill="#ADD1B2" rx="11" ry="11" style="stroke:#181818;stroke-width:1;"/><path d="M218.4818,1438.9106 Q217.9037,1439.2075 217.2631,1439.3481 Q216.6224,1439.5044 215.9193,1439.5044 Q213.4193,1439.5044 212.0912,1437.8638 Q210.7787,1436.2075 210.7787,1433.0825 Q210.7787,1429.9575 212.0912,1428.3013 Q213.4193,1426.645 215.9193,1426.645 Q216.6224,1426.645 217.2631,1426.8013 Q217.9193,1426.9575 218.4818,1427.2544 L218.4818,1429.9731 Q217.8568,1429.395 217.2631,1429.1294 Q216.6693,1428.8481 216.0443,1428.8481 Q214.7006,1428.8481 214.0131,1429.9263 Q213.3256,1430.9888 213.3256,1433.0825 Q213.3256,1435.1763 214.0131,1436.2544 Q214.7006,1437.3169 216.0443,1437.3169 Q216.6693,1437.3169 217.2631,1437.0513 Q217.8568,1436.77 218.4818,1436.1919 L218.4818,1438.9106 Z " fill="#000000"/><text fill="#000000" font-family="sans-serif" font-size="14" lengthAdjust="spacing" textLength="7.7998" x="236.0131" y="1438.1167">L</text><line style="stroke:#181818;stroke-width:0.5;" x1="21.87" x2="425.4559" y1="1449.27" y2="1449.27"/><line style="stroke:#181818;stroke-width:0.5;" x1="21.87" x2="425.4559" y1="1457.27" y2="1457.27"/><text fill="#000000" font-family="sans-serif" font-size="14" lengthAdjust="spacing" textLength="393.5859" x="26.87" y="1474.2651">Decodificar Car&#225;cter (label_encoder.inverse_transform);</text></g><!--class M--><g class="entity" data-qualified-name="M" data-source-line="13" id="ent0014"><rect fill="#F1F1F1" height="64.2969" rx="2.5" ry="2.5" style="stroke:#181818;stroke-width:0.5;" width="282.9492" x="82.19" y="1542.56"/><ellipse cx="213.3751" cy="1558.56" fill="#ADD1B2" rx="11" ry="11" style="stroke:#181818;stroke-width:1;"/><path d="M216.3438,1564.2006 Q215.7657,1564.4975 215.1251,1564.6381 Q214.4844,1564.7944 213.7813,1564.7944 Q211.2813,1564.7944 209.9532,1563.1538 Q208.6407,1561.4975 208.6407,1558.3725 Q208.6407,1555.2475 209.9532,1553.5913 Q211.2813,1551.935 213.7813,1551.935 Q214.4844,1551.935 215.1251,1552.0913 Q215.7813,1552.2475 216.3438,1552.5444 L216.3438,1555.2631 Q215.7188,1554.685 215.1251,1554.4194 Q214.5313,1554.1381 213.9063,1554.1381 Q212.5626,1554.1381 211.8751,1555.2163 Q211.1876,1556.2788 211.1876,1558.3725 Q211.1876,1560.4663 211.8751,1561.5444 Q212.5626,1562.6069 213.9063,1562.6069 Q214.5313,1562.6069 215.1251,1562.3413 Q215.7188,1562.06 216.3438,1561.4819 L216.3438,1564.2006 Z " fill="#000000"/><text fill="#000000" font-family="sans-serif" font-size="14" lengthAdjust="spacing" textLength="12.0791" x="233.8751" y="1563.4067">M</text><line style="stroke:#181818;stroke-width:0.5;" x1="83.19" x2="364.1392" y1="1574.56" y2="1574.56"/><text fill="#000000" font-family="sans-serif" font-size="14" lengthAdjust="spacing" textLength="270.9492" x="88.19" y="1591.5551">Acumular Texto Reconocido por L&#237;nea;</text><line style="stroke:#181818;stroke-width:0.5;" x1="83.19" x2="364.1392" y1="1598.8569" y2="1598.8569"/></g><!--class N--><g class="entity" data-qualified-name="N" data-source-line="14" id="ent0015"><rect fill="#F1F1F1" height="64.2969" rx="2.5" ry="2.5" style="stroke:#181818;stroke-width:0.5;" width="365.999" x="40.66" y="1667.86"/><ellipse cx="214.1732" cy="1683.86" fill="#ADD1B2" rx="11" ry="11" style="stroke:#181818;stroke-width:1;"/><path d="M217.1419,1689.5006 Q216.5638,1689.7975 215.9232,1689.9381 Q215.2826,1690.0944 214.5794,1690.0944 Q212.0794,1690.0944 210.7513,1688.4538 Q209.4388,1686.7975 209.4388,1683.6725 Q209.4388,1680.5475 210.7513,1678.8913 Q212.0794,1677.235 214.5794,1677.235 Q215.2826,1677.235 215.9232,1677.3913 Q216.5794,1677.5475 217.1419,1677.8444 L217.1419,1680.5631 Q216.5169,1679.985 215.9232,1679.7194 Q215.3294,1679.4381 214.7044,1679.4381 Q213.3607,1679.4381 212.6732,1680.5163 Q211.9857,1681.5788 211.9857,1683.6725 Q211.9857,1685.7663 212.6732,1686.8444 Q213.3607,1687.9069 214.7044,1687.9069 Q215.3294,1687.9069 215.9232,1687.6413 Q216.5169,1687.36 217.1419,1686.7819 L217.1419,1689.5006 Z " fill="#000000"/><text fill="#000000" font-family="sans-serif" font-size="14" lengthAdjust="spacing" textLength="10.4727" x="234.6732" y="1688.7067">N</text><line style="stroke:#181818;stroke-width:0.5;" x1="41.66" x2="405.659" y1="1699.86" y2="1699.86"/><line style="stroke:#181818;stroke-width:0.5;" x1="41.66" x2="405.659" y1="1707.86" y2="1707.86"/><text fill="#000000" font-family="sans-serif" font-size="14" lengthAdjust="spacing" textLength="353.999" x="46.66" y="1724.8551">Dibujar Cajas Delimitadoras (Caracteres y L&#237;neas);</text></g><!--class O--><g class="entity" data-qualified-name="O" data-source-line="15" id="ent0016"><rect fill="#F1F1F1" height="64.2969" rx="2.5" ry="2.5" style="stroke:#181818;stroke-width:0.5;" width="172.7471" x="137.29" y="1793.16"/><ellipse cx="213.9038" cy="1809.16" fill="#ADD1B2" rx="11" ry="11" style="stroke:#181818;stroke-width:1;"/><path d="M216.8725,1814.8006 Q216.2944,1815.0975 215.6538,1815.2381 Q215.0131,1815.3944 214.31,1815.3944 Q211.81,1815.3944 210.4819,1813.7538 Q209.1694,1812.0975 209.1694,1808.9725 Q209.1694,1805.8475 210.4819,1804.1913 Q211.81,1802.535 214.31,1802.535 Q215.0131,1802.535 215.6538,1802.6913 Q216.31,1802.8475 216.8725,1803.1444 L216.8725,1805.8631 Q216.2475,1805.285 215.6538,1805.0194 Q215.06,1804.7381 214.435,1804.7381 Q213.0913,1804.7381 212.4038,1805.8163 Q211.7163,1806.8788 211.7163,1808.9725 Q211.7163,1811.0663 212.4038,1812.1444 Q213.0913,1813.2069 214.435,1813.2069 Q215.06,1813.2069 215.6538,1812.9413 Q216.2475,1812.66 216.8725,1812.0819 L216.8725,1814.8006 Z " fill="#000000"/><text fill="#000000" font-family="sans-serif" font-size="14" lengthAdjust="spacing" textLength="11.0195" x="234.4038" y="1814.0067">O</text><line style="stroke:#181818;stroke-width:0.5;" x1="138.29" x2="309.0371" y1="1825.16" y2="1825.16"/><text fill="#000000" font-family="sans-serif" font-size="14" lengthAdjust="spacing" textLength="160.7471" x="143.29" y="1842.1551">Ensamblar Texto Final;</text><line style="stroke:#181818;stroke-width:0.5;" x1="138.29" x2="309.0371" y1="1849.4569" y2="1849.4569"/></g><!--class P--><g class="entity" data-qualified-name="P" data-source-line="16" id="ent0017"><rect fill="#F1F1F1" height="64.2969" rx="2.5" ry="2.5" style="stroke:#181818;stroke-width:0.5;" width="341.8955" x="52.71" y="1918.45"/><ellipse cx="215.1866" cy="1934.45" fill="#ADD1B2" rx="11" ry="11" style="stroke:#181818;stroke-width:1;"/><path d="M218.1553,1940.0906 Q217.5772,1940.3875 216.9366,1940.5281 Q216.2959,1940.6844 215.5928,1940.6844 Q213.0928,1940.6844 211.7647,1939.0438 Q210.4522,1937.3875 210.4522,1934.2625 Q210.4522,1931.1375 211.7647,1929.4813 Q213.0928,1927.825 215.5928,1927.825 Q216.2959,1927.825 216.9366,1927.9813 Q217.5928,1928.1375 218.1553,1928.4344 L218.1553,1931.1531 Q217.5303,1930.575 216.9366,1930.3094 Q216.3428,1930.0281 215.7178,1930.0281 Q214.3741,1930.0281 213.6866,1931.1063 Q212.9991,1932.1688 212.9991,1934.2625 Q212.9991,1936.3563 213.6866,1937.4344 Q214.3741,1938.4969 215.7178,1938.4969 Q216.3428,1938.4969 216.9366,1938.2313 Q217.5303,1937.95 218.1553,1937.3719 L218.1553,1940.0906 Z " fill="#000000"/><text fill="#000000" font-family="sans-serif" font-size="14" lengthAdjust="spacing" textLength="8.4424" x="235.6866" y="1939.2967">P</text><line style="stroke:#181818;stroke-width:0.5;" x1="53.71" x2="393.6055" y1="1950.45" y2="1950.45"/><text fill="#000000" font-family="sans-serif" font-size="14" lengthAdjust="spacing" textLength="329.8955" x="58.71" y="1967.4451">Devolver Texto Reconocido y Imagen Anotada;</text><line style="stroke:#181818;stroke-width:0.5;" x1="53.71" x2="393.6055" y1="1974.7469" y2="1974.7469"/></g><!--link A to B--><g class="link" data-entity-1="ent0002" data-entity-2="ent0003" data-link-type="dependency" data-source-line="18" id="lnk18"><path codeLine="18" d="M223.66,71.58 C223.66,90.13 223.66,107.53 223.66,126.07" fill="none" id="A-to-B" style="stroke:#181818;stroke-width:1;"/><polygon fill="#181818" points="223.66,132.07,227.66,123.07,223.66,127.07,219.66,123.07,223.66,132.07" style="stroke:#181818;stroke-width:1;"/></g><!--link B to C--><g class="link" data-entity-1="ent0003" data-entity-2="ent0004" data-link-type="dependency" data-source-line="19" id="lnk19"><path codeLine="19" d="M223.66,196.88 C223.66,215.43 223.66,232.83 223.66,251.37" fill="none" id="B-to-C" style="stroke:#181818;stroke-width:1;"/><polygon fill="#181818" points="223.66,257.37,227.66,248.37,223.66,252.37,219.66,248.37,223.66,257.37" style="stroke:#181818;stroke-width:1;"/></g><!--link C to D--><g class="link" data-entity-1="ent0004" data-entity-2="ent0005" data-link-type="dependency" data-source-line="20" id="lnk20"><path codeLine="20" d="M223.66,322.17 C223.66,340.72 223.66,358.12 223.66,376.66" fill="none" id="C-to-D" style="stroke:#181818;stroke-width:1;"/><polygon fill="#181818" points="223.66,382.66,227.66,373.66,223.66,377.66,219.66,373.66,223.66,382.66" style="stroke:#181818;stroke-width:1;"/></g><!--link D to E--><g class="link" data-entity-1="ent0005" data-entity-2="ent0006" data-link-type="dependency" data-source-line="21" id="lnk21"><path codeLine="21" d="M223.66,447.47 C223.66,466.02 223.66,483.42 223.66,501.96" fill="none" id="D-to-E" style="stroke:#181818;stroke-width:1;"/><polygon fill="#181818" points="223.66,507.96,227.66,498.96,223.66,502.96,219.66,498.96,223.66,507.96" style="stroke:#181818;stroke-width:1;"/></g><!--link E to F--><g class="link" data-entity-1="ent0006" data-entity-2="ent0007" data-link-type="dependency" data-source-line="22" id="lnk22"><path codeLine="22" d="M223.66,572.77 C223.66,591.32 223.66,608.72 223.66,627.26" fill="none" id="E-to-F" style="stroke:#181818;stroke-width:1;"/><polygon fill="#181818" points="223.66,633.26,227.66,624.26,223.66,628.26,219.66,624.26,223.66,633.26" style="stroke:#181818;stroke-width:1;"/></g><!--link F to G--><g class="link" data-entity-1="ent0007" data-entity-2="ent0008" data-link-type="dependency" data-source-line="23" id="lnk23"><path codeLine="23" d="M223.66,698.24 C223.66,721.04 223.66,745.68 223.66,768.45" fill="none" id="F-to-G" style="stroke:#181818;stroke-width:1;"/><polygon fill="#181818" points="223.66,774.45,227.66,765.45,223.66,769.45,219.66,765.45,223.66,774.45" style="stroke:#181818;stroke-width:1;"/><text fill="#000000" font-family="sans-serif" font-size="13" lengthAdjust="spacing" textLength="95.7925" x="224.66" y="740.8469">Por cada L&#237;nea</text></g><!--link G to H--><g class="link" data-entity-1="ent0008" data-entity-2="ent0009" data-link-type="dependency" data-source-line="24" id="lnk24"><path codeLine="24" d="M223.66,839.36 C223.66,857.91 223.66,875.31 223.66,893.85" fill="none" id="G-to-H" style="stroke:#181818;stroke-width:1;"/><polygon fill="#181818" points="223.66,899.85,227.66,890.85,223.66,894.85,219.66,890.85,223.66,899.85" style="stroke:#181818;stroke-width:1;"/></g><!--link H to I--><g class="link" data-entity-1="ent0009" data-entity-2="ent0010" data-link-type="dependency" data-source-line="25" id="lnk25"><path codeLine="25" d="M223.66,964.84 C223.66,987.63 223.66,1012.27 223.66,1035.04" fill="none" id="H-to-I" style="stroke:#181818;stroke-width:1;"/><polygon fill="#181818" points="223.66,1041.04,227.66,1032.04,223.66,1036.04,219.66,1032.04,223.66,1041.04" style="stroke:#181818;stroke-width:1;"/><text fill="#000000" font-family="sans-serif" font-size="13" lengthAdjust="spacing" textLength="116.6763" x="224.66" y="1007.4469">Por cada Car&#225;cter</text></g><!--link I to J--><g class="link" data-entity-1="ent0010" data-entity-2="ent0011" data-link-type="dependency" data-source-line="26" id="lnk26"><path codeLine="26" d="M223.66,1105.96 C223.66,1124.51 223.66,1141.91 223.66,1160.45" fill="none" id="I-to-J" style="stroke:#181818;stroke-width:1;"/><polygon fill="#181818" points="223.66,1166.45,227.66,1157.45,223.66,1161.45,219.66,1157.45,223.66,1166.45" style="stroke:#181818;stroke-width:1;"/></g><!--link J to K--><g class="link" data-entity-1="ent0011" data-entity-2="ent0012" data-link-type="dependency" data-source-line="27" id="lnk27"><path codeLine="27" d="M223.66,1231.25 C223.66,1249.8 223.66,1267.2 223.66,1285.74" fill="none" id="J-to-K" style="stroke:#181818;stroke-width:1;"/><polygon fill="#181818" points="223.66,1291.74,227.66,1282.74,223.66,1286.74,219.66,1282.74,223.66,1291.74" style="stroke:#181818;stroke-width:1;"/></g><!--link K to L--><g class="link" data-entity-1="ent0012" data-entity-2="ent0013" data-link-type="dependency" data-source-line="28" id="lnk28"><path codeLine="28" d="M223.66,1356.55 C223.66,1375.1 223.66,1392.5 223.66,1411.04" fill="none" id="K-to-L" style="stroke:#181818;stroke-width:1;"/><polygon fill="#181818" points="223.66,1417.04,227.66,1408.04,223.66,1412.04,219.66,1408.04,223.66,1417.04" style="stroke:#181818;stroke-width:1;"/></g><!--link L to M--><g class="link" data-entity-1="ent0013" data-entity-2="ent0014" data-link-type="dependency" data-source-line="29" id="lnk29"><path codeLine="29" d="M223.66,1481.85 C223.66,1500.4 223.66,1517.8 223.66,1536.34" fill="none" id="L-to-M" style="stroke:#181818;stroke-width:1;"/><polygon fill="#181818" points="223.66,1542.34,227.66,1533.34,223.66,1537.34,219.66,1533.34,223.66,1542.34" style="stroke:#181818;stroke-width:1;"/></g><!--link M to N--><g class="link" data-entity-1="ent0014" data-entity-2="ent0015" data-link-type="dependency" data-source-line="30" id="lnk30"><path codeLine="30" d="M223.66,1607.14 C223.66,1625.69 223.66,1643.09 223.66,1661.63" fill="none" id="M-to-N" style="stroke:#181818;stroke-width:1;"/><polygon fill="#181818" points="223.66,1667.63,227.66,1658.63,223.66,1662.63,219.66,1658.63,223.66,1667.63" style="stroke:#181818;stroke-width:1;"/></g><!--link N to O--><g class="link" data-entity-1="ent0015" data-entity-2="ent0016" data-link-type="dependency" data-source-line="31" id="lnk31"><path codeLine="31" d="M223.66,1732.44 C223.66,1750.99 223.66,1768.39 223.66,1786.93" fill="none" id="N-to-O" style="stroke:#181818;stroke-width:1;"/><polygon fill="#181818" points="223.66,1792.93,227.66,1783.93,223.66,1787.93,219.66,1783.93,223.66,1792.93" style="stroke:#181818;stroke-width:1;"/></g><!--link O to P--><g class="link" data-entity-1="ent0016" data-entity-2="ent0017" data-link-type="dependency" data-source-line="32" id="lnk32"><path codeLine="32" d="M223.66,1857.74 C223.66,1876.29 223.66,1893.69 223.66,1912.23" fill="none" id="O-to-P" style="stroke:#181818;stroke-width:1;"/><polygon fill="#181818" points="223.66,1918.23,227.66,1909.23,223.66,1913.23,219.66,1909.23,223.66,1918.23" style="stroke:#181818;stroke-width:1;"/></g><?plantuml-src RLBBSjf04BplL-oH7EmFYAfI9OHusDXG99MhQbYDoRgaNTNkGfdyJJuWftm2FvOU0GQ7d1eqFJspFPthpthMqeQTNWIxiOuQNRCkNGfKKwQ6g1SKDXJEjBqklDjnI3Peqgl9C5E5aAu-bj5GGw8p2JPopDG8Z274W_r9nXx-E9tNr2LATeSX9QeZsr0wrGOGOvCmi_1jXzykSVoKgJ5uo-3tR8wygOUUTmax3xxofWNlf83HyyDlnoHj4xILRtWG1xrQp2v5lEMyLCZKz1_rx_8SyrzjE48cSUYtcjtAetxu9OHCFVIgt0LlED8jGm-EfLYP7nIg5n-grjVSLCOvY3yUssisSFQgwPrptw5gJG9tBZQoyRLzmTuVw0sjGMU78eTxAwUAN65d5p6nHVCJcdEpRRSDEh_nM_9w1ItdZQszxdmuUPQfv_vQw-rhF-AL8eOsjhM9QX_mRt1n1mPVph0GdroaTdqPCPR0PMhPRxxp3VQw7Ru_HoztFlMfLBc-k_kYXuYdO8442ewGCy4IYH8S8p624e0bNc3GV5e8eP3A55SNd5qptdt3QQNuW2CAFk8QWdCuBVW4qmIVOOdW0ayKNFu5?></g></svg>